<svg width="36" height="36" viewBox="0 0 36 36" fill="none" xmlns="http://www.w3.org/2000/svg">
<g id="Frame 1">
<g id="Group 22">
<g id="Clip path group">
<mask id="mask0_509_1790" style="mask-type:luminance" maskUnits="userSpaceOnUse" x="0" y="1" width="18" height="31">
<g id="15f83fca9a">
<path id="Vector" d="M0 1H17.5272V31.1771H0V1Z" fill="white"/>
</g>
</mask>
<g mask="url(#mask0_509_1790)">
<g id="Group">
<path id="Vector_2" d="M17.1568 8.46279V1.0061L2.84347 15.3174C-0.73888 18.9018 -0.73888 24.7112 2.84347 28.2956C6.42784 31.88 12.2393 31.88 15.8217 28.2956C16.6755 27.4418 17.1568 26.2839 17.1568 25.0757V15.9195L12.6522 20.4221V23.7125C12.6522 23.8937 12.5817 24.0648 12.4528 24.1917L11.8829 24.7636C11.1117 25.4301 10.1169 25.7684 9.07785 25.702C8.22204 25.6476 7.40246 25.3073 6.75808 24.7414C5.05249 23.2413 4.99208 20.6275 6.57282 19.0447L17.1568 8.46279Z" fill="#FFE259"/>
</g>
</g>
</g>
<g id="Clip path group_2">
<mask id="mask1_509_1790" style="mask-type:luminance" maskUnits="userSpaceOnUse" x="18" y="1" width="18" height="31">
<g id="abcc01e912">
<path id="Vector_3" d="M18.2664 1.0061H35.2176V31.0121H18.2664V1.0061Z" fill="white"/>
</g>
</mask>
<g mask="url(#mask1_509_1790)">
<g id="Group_2">
<path id="Vector_4" d="M18.2766 8.46279V1.0061L32.5878 15.3174C36.1722 18.9018 36.1722 24.7112 32.5878 28.2956C29.0035 31.88 23.194 31.88 19.6096 28.2956C18.7558 27.4418 18.2766 26.2839 18.2766 25.0757V15.9195L22.7812 20.4221V23.7125C22.7812 23.8937 22.8516 24.0648 22.9785 24.1917L23.5504 24.7636C24.3216 25.4301 25.3144 25.7684 26.3555 25.702C27.2113 25.6476 28.0309 25.3073 28.6732 24.7414C30.3788 23.2413 30.4412 20.6275 28.8605 19.0447L18.2766 8.46279Z" fill="#FFE259"/>
</g>
</g>
</g>
<g id="Clip path group_3">
<mask id="mask2_509_1790" style="mask-type:luminance" maskUnits="userSpaceOnUse" x="15" y="27" width="6" height="8">
<g id="99da54a115">
<path id="Vector_5" d="M15.3283 27.6392H20.0968V34.2501H15.3283V27.6392Z" fill="white"/>
</g>
</mask>
<g mask="url(#mask2_509_1790)">
<g id="Group_3">
<path id="Vector_6" d="M18.8402 29.2119C18.3791 28.7507 18.0025 28.2292 17.7166 27.6633C17.4306 28.2292 17.0521 28.7507 16.5929 29.2119C16.1983 29.6065 15.7794 29.967 15.3384 30.2912L17.7166 34.2622L20.0927 30.2912C19.6537 29.967 19.2349 29.6065 18.8402 29.2119Z" fill="#FFE259"/>
</g>
</g>
</g>
</g>
</g>
</svg>
