<svg width="15" height="16" viewBox="0 0 15 16" fill="none" xmlns="http://www.w3.org/2000/svg">
<g id="icons_basketball.aaa47453e.svg" clip-path="url(#clip0_621_2443)">
<g id="Group">
<path id="Vector" d="M14.9065 7.86945C13.0205 7.75945 10.944 8.48245 9.5205 9.72495L7.8245 8.02895L12.97 3.01645C14.1995 4.33512 14.8904 6.06657 14.9065 7.86945ZM12.498 2.54345L7.44 7.64495L5.85 6.05495C7.1385 4.66845 8 2.56845 7.913 0.66095C9.622 0.73595 11.248 1.37495 12.498 2.54295V2.54345ZM6.983 15.4879C5.301 15.3944 3.5275 14.7144 2.2955 13.5654L7.441 8.41945L9.124 10.1024C7.8065 11.4284 6.963 13.5959 6.983 15.4879ZM7.0495 8.03495L1.948 13.1379C0.779944 11.888 0.0965858 10.262 0.0209961 8.55295C0.981496 8.59745 2.12 8.27145 3.023 7.93995C3.92608 7.60859 4.75405 7.10052 5.4585 6.44545L7.0495 8.03495Z" fill="white"/>
<path id="Vector_2" d="M5.48162 5.67994C6.81312 4.24344 7.45362 2.45844 7.34662 0.603943C5.36362 0.603943 3.78212 1.24894 2.37262 2.57194L5.48162 5.67994ZM1.98112 2.95994C0.650116 4.39794 -0.0983839 6.06744 0.0131162 7.92194C1.86812 8.02944 3.65312 7.40194 5.09012 6.06994L1.98112 2.95994ZM12.9186 13.1044C14.1806 11.7399 14.9471 10.1694 14.9051 8.40644C13.1001 8.27694 11.3446 8.86394 9.91562 10.1014L12.9186 13.1044ZM9.52512 10.4934C8.15112 11.8799 7.59512 13.5484 7.57712 15.5349C9.45762 15.6684 11.0891 14.8589 12.5421 13.5099L9.52512 10.4934Z" fill="white"/>
</g>
</g>
<defs>
<clipPath id="clip0_621_2443">
<rect width="15" height="15" fill="white" transform="translate(0 0.589966)"/>
</clipPath>
</defs>
</svg>
