<svg width="24" height="24" viewBox="0 0 24 24" fill="none" xmlns="http://www.w3.org/2000/svg">
<g id="Frame 1">
<rect width="24" height="24" fill="url(#paint0_linear_250_1248)"/>
<g id="Group 22">
<g id="Clip path group">
<mask id="mask0_250_1248" style="mask-type:luminance" maskUnits="userSpaceOnUse" x="0" y="0" width="12" height="21">
<g id="15f83fca9a">
<path id="Vector" d="M0 0.666626H11.6848V20.7847H0V0.666626Z" fill="white"/>
</g>
</mask>
<g mask="url(#mask0_250_1248)">
<g id="Group">
<path id="Vector_2" d="M11.4379 5.64178V0.670654L1.89567 10.2115C-0.492567 12.6011 -0.492567 16.4741 1.89567 18.8637C4.28525 21.2532 8.15958 21.2532 10.5478 18.8637C11.117 18.2945 11.4379 17.5225 11.4379 16.7171V10.6129L8.43479 13.6146V15.8082C8.43479 15.929 8.3878 16.0432 8.30188 16.1277L7.92197 16.509C7.40781 16.9533 6.74463 17.1789 6.05192 17.1346C5.48138 17.0983 4.935 16.8714 4.50541 16.4942C3.36835 15.4941 3.32807 13.7516 4.3819 12.6964L11.4379 5.64178Z" fill="url(#paint1_linear_250_1248)"/>
</g>
</g>
</g>
<g id="Clip path group_2">
<mask id="mask1_250_1248" style="mask-type:luminance" maskUnits="userSpaceOnUse" x="12" y="0" width="12" height="21">
<g id="abcc01e912">
<path id="Vector_3" d="M12.1777 0.670654H23.4786V20.6746H12.1777V0.670654Z" fill="white"/>
</g>
</mask>
<g mask="url(#mask1_250_1248)">
<g id="Group_2">
<path id="Vector_4" d="M12.1846 5.64178V0.670654L21.7254 10.2115C24.115 12.6011 24.115 16.4741 21.7254 18.8637C19.3358 21.2532 15.4629 21.2532 13.0733 18.8637C12.5041 18.2945 12.1846 17.5225 12.1846 16.7171V10.6129L15.1877 13.6146V15.8082C15.1877 15.929 15.2346 16.0432 15.3192 16.1277L15.7005 16.509C16.2146 16.9533 16.8765 17.1789 17.5705 17.1346C18.1411 17.0983 18.6874 16.8714 19.1157 16.4942C20.2527 15.4941 20.2944 13.7516 19.2405 12.6964L12.1846 5.64178Z" fill="url(#paint2_linear_250_1248)"/>
</g>
</g>
</g>
<g id="Clip path group_3">
<mask id="mask2_250_1248" style="mask-type:luminance" maskUnits="userSpaceOnUse" x="10" y="18" width="4" height="5">
<g id="99da54a115">
<path id="Vector_5" d="M10.219 18.426H13.3979V22.8333H10.219V18.426Z" fill="white"/>
</g>
</mask>
<g mask="url(#mask2_250_1248)">
<g id="Group_3">
<path id="Vector_6" d="M12.5604 19.4745C12.2529 19.1671 12.0019 18.8194 11.8113 18.4421C11.6206 18.8194 11.3683 19.1671 11.0622 19.4745C10.7991 19.7376 10.5198 19.9779 10.2258 20.194L11.8113 22.8414L13.3954 20.194C13.1027 19.9779 12.8235 19.7376 12.5604 19.4745Z" fill="url(#paint3_linear_250_1248)"/>
</g>
</g>
</g>
</g>
</g>
<defs>
<linearGradient id="paint0_linear_250_1248" x1="0" y1="12" x2="24" y2="12" gradientUnits="userSpaceOnUse">
</linearGradient>
<linearGradient id="paint1_linear_250_1248" x1="11.4379" y1="0.670656" x2="-3.48657" y2="4.79663" gradientUnits="userSpaceOnUse">
<stop offset="0.0952538" stop-color="#F9F438"/>
<stop offset="1" stop-color="#52E56B"/>
</linearGradient>
<linearGradient id="paint2_linear_250_1248" x1="23.5176" y1="0.670656" x2="8.59355" y2="4.7964" gradientUnits="userSpaceOnUse">
<stop offset="0.0952538" stop-color="#F9F438"/>
<stop offset="1" stop-color="#52E56B"/>
</linearGradient>
<linearGradient id="paint3_linear_250_1248" x1="13.3954" y1="18.4421" x2="9.39593" y2="19.8469" gradientUnits="userSpaceOnUse">
<stop offset="0.0952538" stop-color="#F9F438"/>
<stop offset="1" stop-color="#52E56B"/>
</linearGradient>
</defs>
</svg>
