<svg width="37" height="36" viewBox="0 0 37 36" fill="none" xmlns="http://www.w3.org/2000/svg">
<g id="SVG">
<path id="Vector" fill-rule="evenodd" clip-rule="evenodd" d="M13.0903 23.8043C14.5614 24.5277 16.1797 24.9273 17.8566 24.9639L20.6604 21.7525C20.6927 19.8574 20.2551 17.9854 19.3877 16.3095L13.843 15.0184C12.6859 16.1777 11.7885 17.5737 11.2189 19.1122L13.0903 23.8043ZM12.7982 24.7179L10.924 26.28C12.9475 28.1189 15.6353 29.2396 18.585 29.2396C19.1511 29.2396 19.7076 29.1984 20.2515 29.1187L17.8493 25.9136C16.0765 25.8767 14.3625 25.4649 12.7982 24.7179ZM7.21254 18.5617H10.4126C11.0521 16.9316 12.0334 15.4567 13.2857 14.2342V10.7794C12.174 10.5107 11.0282 10.4122 9.88534 10.4857C8.20414 12.4711 7.19037 15.0397 7.19037 17.845C7.19037 18.0857 7.19783 18.3247 7.21254 18.5617ZM26.2418 21.5543C27.2314 20.5463 28.0263 19.3643 28.5835 18.0685L27.0705 12.9064C25.7876 12.2531 24.3894 11.8484 22.9356 11.7186L20.3628 16.1353C21.133 17.7147 21.5567 19.4444 21.6066 21.205L26.2418 21.5543ZM26.7926 22.3467V25.749C28.595 23.8778 29.7635 21.3919 29.9526 18.6366L29.4129 18.5422C28.7875 19.9622 27.8978 21.2532 26.7926 22.3467ZM27.4459 10.6804C25.7709 8.6115 23.386 7.14088 20.6618 6.6392C20.2779 7.08795 19.9309 7.56431 19.6231 8.06441L22.7342 10.7506C24.2723 10.8523 25.758 11.2374 27.1309 11.8793L27.4459 10.6804ZM18.6786 7.79277C18.9434 7.34116 19.237 6.90657 19.5582 6.49136C19.2374 6.46422 18.9128 6.45038 18.585 6.45038C15.5802 6.45038 12.847 7.6135 10.8111 9.51408C11.7046 9.52798 12.5943 9.63885 13.4651 9.846C13.5017 9.81691 13.543 9.79294 13.5881 9.77537L18.6786 7.79277ZM18.585 31.1388C11.2431 31.1388 5.29126 25.1869 5.29126 17.845C5.29126 10.5031 11.2431 4.55127 18.585 4.55127C25.9269 4.55127 31.8788 10.5031 31.8788 17.845C31.8788 25.1869 25.9269 31.1388 18.585 31.1388Z" fill="white"/>
</g>
</svg>
