<svg width="24" height="24" viewBox="0 0 24 24" fill="none" xmlns="http://www.w3.org/2000/svg">
<g id="casino">
<path id="Vector" d="M15.2 14.8L16.35 10.65L12.8 8.20003L11.65 12.35L15.2 14.8ZM4.00003 18.825L3.17503 18.425C2.65836 18.2084 2.30836 17.8377 2.12503 17.313C1.94169 16.7884 1.9667 16.2674 2.20003 15.75L4.00003 11.85V18.825ZM8.00003 21C7.45003 21 6.97936 20.8 6.58803 20.4C6.19669 20 6.00069 19.525 6.00003 18.975V13L8.67503 20.35C8.72503 20.4667 8.7667 20.5794 8.80003 20.688C8.83336 20.7967 8.8917 20.9007 8.97503 21H8.00003ZM13.15 20.875C12.6334 21.0584 12.1167 21.0334 11.6 20.8C11.0834 20.5667 10.7334 20.1917 10.55 19.675L6.12503 7.45003C5.94169 6.93336 5.96669 6.4207 6.20003 5.91203C6.43336 5.40336 6.80836 5.05769 7.32503 4.87503L14.85 2.12503C15.3667 1.94169 15.8794 1.9667 16.388 2.20003C16.8967 2.43336 17.2424 2.80836 17.425 3.32503L21.875 15.55C22.0584 16.0667 22.0334 16.5794 21.8 17.088C21.5667 17.5967 21.1917 17.9424 20.675 18.125L13.15 20.875Z" fill="#8996A2"/>
</g>
</svg>
