<svg width="25" height="25" viewBox="0 0 25 25" fill="none" xmlns="http://www.w3.org/2000/svg">
<rect width="25" height="25" fill="#898989"/>
<g clip-path="url(#clip0_221_1170)">
<rect width="1440" height="1024" transform="translate(-42 -259)" fill="#04071E"/>
<rect x="-27" y="-145" width="239" height="1003" rx="12" fill="#141B2E"/>
<path d="M7.44984 4.16667H8.17484C9.08039 4.16667 9.58456 4.29584 10.0359 4.53751C10.4901 4.77917 10.8457 5.13473 11.0873 5.5875C11.329 6.04028 11.4582 6.54584 11.4582 7.45V8.175C11.4582 9.08056 11.329 9.58473 11.0873 10.0361C10.8513 10.4844 10.4853 10.8508 10.0373 11.0875C9.58456 11.3292 9.079 11.4583 8.17484 11.4583H7.44984C6.54428 11.4583 6.04012 11.3292 5.58873 11.0875C5.14083 10.851 4.77448 10.4851 4.53734 10.0375C4.29567 9.58334 4.1665 9.07917 4.1665 8.175V7.45C4.1665 6.54445 4.29567 6.04028 4.53734 5.58889C4.7734 5.14064 5.13939 4.77416 5.58734 4.53751C6.0415 4.29584 6.54567 4.16667 7.44984 4.16667ZM16.8248 4.16667H17.5498C18.4554 4.16667 18.9596 4.29584 19.4109 4.53751C19.8651 4.77917 20.2207 5.13473 20.4623 5.5875C20.704 6.04028 20.8332 6.54584 20.8332 7.45V8.175C20.8332 9.08056 20.704 9.58473 20.4623 10.0361C20.2263 10.4844 19.8603 10.8508 19.4123 11.0875C18.9596 11.3292 18.454 11.4583 17.5498 11.4583H16.8248C15.9193 11.4583 15.4151 11.3292 14.9637 11.0875C14.5158 10.851 14.1495 10.4851 13.9123 10.0375C13.6707 9.58473 13.5415 9.07917 13.5415 8.175V7.45C13.5415 6.54445 13.6707 6.04028 13.9123 5.58889C14.1484 5.14064 14.5144 4.77416 14.9623 4.53751C15.4151 4.29584 15.9207 4.16667 16.8248 4.16667ZM16.8248 13.5417H17.5498C18.4554 13.5417 18.9596 13.6708 19.4109 13.9125C19.8651 14.1542 20.2207 14.5097 20.4623 14.9625C20.704 15.4153 20.8332 15.9208 20.8332 16.825V17.55C20.8332 18.4556 20.704 18.9597 20.4623 19.4111C20.2263 19.8594 19.8603 20.2258 19.4123 20.4625C18.9596 20.7042 18.454 20.8333 17.5498 20.8333H16.8248C15.9193 20.8333 15.4151 20.7042 14.9637 20.4625C14.5158 20.226 14.1495 19.8601 13.9123 19.4125C13.6707 18.9597 13.5415 18.4542 13.5415 17.55V16.825C13.5415 15.9194 13.6707 15.4153 13.9123 14.9639C14.1484 14.5156 14.5144 14.1492 14.9623 13.9125C15.4151 13.6708 15.9207 13.5417 16.8248 13.5417ZM7.44984 13.5417H8.17484C9.08039 13.5417 9.58456 13.6708 10.0359 13.9125C10.4901 14.1542 10.8457 14.5097 11.0873 14.9625C11.329 15.4153 11.4582 15.9208 11.4582 16.825V17.55C11.4582 18.4556 11.329 18.9597 11.0873 19.4111C10.8513 19.8594 10.4853 20.2258 10.0373 20.4625C9.58456 20.7042 9.079 20.8333 8.17484 20.8333H7.44984C6.54428 20.8333 6.04012 20.7042 5.58873 20.4625C5.14083 20.226 4.77448 19.8601 4.53734 19.4125C4.29567 18.9583 4.1665 18.4542 4.1665 17.55V16.825C4.1665 15.9194 4.29567 15.4153 4.53734 14.9639C4.7734 14.5156 5.13939 14.1492 5.58734 13.9125C6.04011 13.6708 6.54567 13.5417 7.44984 13.5417Z" fill="white"/>
<path d="M6.08889 0H18.9111C20.4944 0 21.3792 0.170833 22.3 0.663889C23.1722 1.13056 23.8694 1.82778 24.3361 2.7C24.8292 3.62083 25 4.50556 25 6.08889V18.9111C25 20.4944 24.8292 21.3792 24.3361 22.3C23.8755 23.1665 23.1665 23.8755 22.3 24.3361C21.3792 24.8292 20.4944 25 18.9111 25H6.08889C4.50556 25 3.62083 24.8292 2.7 24.3361C1.83351 23.8755 1.12446 23.1665 0.663889 22.3C0.170833 21.3792 0 20.4944 0 18.9111V6.08889C0 4.50556 0.170833 3.62083 0.663889 2.7C1.12446 1.83351 1.83351 1.12446 2.7 0.663889C3.62083 0.170833 4.50556 0 6.08889 0ZM6.08889 2.08333C4.69583 2.08333 4.19167 2.22778 3.68194 2.5C3.17879 2.76666 2.76746 3.17848 2.50139 3.68194C2.22778 4.19167 2.08333 4.69583 2.08333 6.08889V18.9111C2.08333 20.3042 2.22778 20.8083 2.5 21.3181C2.77361 21.8278 3.17222 22.2264 3.68194 22.4986C4.19167 22.7722 4.69583 22.9167 6.08889 22.9167H18.9111C20.3042 22.9167 20.8083 22.7722 21.3181 22.5C21.8278 22.2264 22.2264 21.8278 22.4986 21.3181C22.7722 20.8083 22.9167 20.3042 22.9167 18.9111V6.08889C22.9167 4.69583 22.7722 4.19167 22.5 3.68194C22.2333 3.17879 21.8215 2.76746 21.3181 2.50139C20.8083 2.22778 20.3042 2.08333 18.9111 2.08333H6.08889Z" fill="url(#paint0_linear_221_1170)"/>
</g>
<defs>
<linearGradient id="paint0_linear_221_1170" x1="1.89728e-05" y1="2500" x2="25" y2="-6.63211e-05" gradientUnits="userSpaceOnUse">
<stop stop-color="#0095FF"/>
<stop offset="1" stop-color="#0854C3"/>
</linearGradient>
<clipPath id="clip0_221_1170">
<rect width="1440" height="1024" fill="white" transform="translate(-42 -259)"/>
</clipPath>
</defs>
</svg>
