<svg width="15" height="16" viewBox="0 0 15 16" fill="none" xmlns="http://www.w3.org/2000/svg">
<g id="998335e8f7dbc80e13099ab24624d3ea34f672e0.svg" clip-path="url(#clip0_623_2506)">
<path id="Vector" d="M5.27766 9.26346C5.2686 9.27184 5.26038 9.28115 5.25312 9.29115C5.04297 9.68971 4.75642 10.0507 4.6464 10.4987C4.6179 10.615 4.60088 10.7362 4.58347 10.8549C4.57065 10.9795 4.50078 11.0912 4.39429 11.1573C4.34519 11.193 4.30641 11.241 4.28189 11.2966C4.22687 11.4137 4.14927 11.5187 4.05352 11.6057C3.91381 11.7339 3.82872 11.908 3.85959 12.102C3.88848 12.284 3.83941 12.4423 3.77489 12.6022C3.65339 12.9027 3.52951 13.2022 3.40602 13.5018C3.36131 13.6099 3.30114 13.7033 3.17964 13.7393C3.15614 13.749 3.13691 13.7669 3.12542 13.7896C2.93901 14.1458 2.83412 14.5194 2.90141 14.9251C2.91368 14.9979 2.94969 15.0668 2.96117 15.1396C2.97977 15.2583 2.98729 15.3798 3.00075 15.5073C2.64455 15.5433 2.32041 15.5813 1.99547 15.5049C1.95589 15.4954 1.89891 15.4439 1.89613 15.4087C1.88347 15.2453 1.85854 15.0747 1.89099 14.9175C1.97608 14.5043 2.08887 14.0971 2.18901 13.6871C2.19916 13.66 2.20027 13.6305 2.19217 13.6028C2.06355 13.3712 2.11064 13.1465 2.21196 12.9232C2.23633 12.87 2.26576 12.8192 2.29982 12.7717C2.37319 12.6721 2.41621 12.5535 2.42371 12.4301C2.44943 12.0292 2.67186 11.7177 2.88439 11.3947C2.99402 11.2293 3.06803 11.0385 3.15392 10.8592C3.16527 10.8283 3.16652 10.7947 3.15748 10.763C3.0803 10.4516 3.16975 10.15 3.20932 9.84565C3.23584 9.64303 3.27463 9.44153 3.30629 9.23971C3.31025 9.21559 3.31421 9.18071 3.30114 9.16609C3.19785 9.05052 3.22199 8.90253 3.19507 8.76796C3.19165 8.75196 3.19274 8.7354 3.19824 8.72003C3.2303 8.6409 3.26552 8.58665 3.18677 8.49171C3.09217 8.37771 3.25801 8.11809 3.42423 8.10146C3.43729 7.60946 3.2683 7.12821 3.32014 6.62084C3.36447 6.55395 3.54217 6.49854 3.65695 6.43008C3.51526 6.39723 3.38941 6.36239 3.26117 6.34103C3.18677 6.32876 3.15708 6.28997 3.16144 6.22466C3.16856 6.11147 3.1836 5.99907 3.19429 5.88628C3.22476 5.55976 3.2588 5.23324 3.28136 4.90633C3.28729 4.82203 3.31697 4.78997 3.39257 4.78364C3.48954 4.77572 3.5869 4.76939 3.68386 4.75989C3.72582 4.75593 3.76697 4.74485 3.80854 4.73931C3.88176 4.72941 3.89759 4.6934 3.88769 4.62058C3.83189 4.13852 3.83109 3.66002 4.01157 3.19814C4.15009 2.84194 4.34759 2.53166 4.70854 2.37097C4.84705 2.31557 4.99471 2.28658 5.14389 2.28548C5.23136 2.28231 5.32159 2.34248 5.43518 2.38284C5.49336 2.35554 5.51434 2.30369 5.47476 2.20079C5.26144 1.63719 5.54442 0.934295 6.07674 0.694849C6.425 0.536538 6.763 0.556722 7.08994 0.761735C7.20512 0.834163 7.28781 0.892738 7.38837 0.959625C7.48731 0.995245 7.54312 1.07282 7.52844 1.15474C7.52294 1.18601 7.5455 1.19036 7.55737 1.22203C7.64081 1.42416 7.675 1.64325 7.65706 1.86121C7.63969 2.02902 7.55694 2.13469 7.38994 2.15963C7.28544 2.17506 7.255 2.22533 7.27119 2.32348C7.28312 2.39068 7.29 2.45868 7.29175 2.52691C7.29412 2.60606 7.33412 2.6306 7.40381 2.61635C7.50194 2.59617 7.59969 2.57203 7.69744 2.54986C7.77219 2.52851 7.84837 2.51263 7.92544 2.50237C7.98556 2.49801 8.00025 2.46833 8.01094 2.42084C8.03306 2.32031 8.058 2.22058 8.08212 2.12084C8.09125 2.12084 8.1415 2.12084 8.15062 2.12084C8.14706 2.18298 8.14194 2.23324 8.1415 2.28984C8.1415 2.36583 8.17081 2.40421 8.244 2.40857C8.31725 2.41293 8.35325 2.44498 8.34137 2.5273H11.4898V2.66741L11.5943 2.67968V2.11094L11.6873 2.09947C11.7491 2.27994 11.6228 2.49049 11.7902 2.65356L11.8694 2.59142C11.9485 2.66424 11.8998 2.75527 11.9042 2.84511C12.1919 2.84511 12.484 2.88469 12.7594 2.83245C12.9759 2.79287 13.1758 2.88271 13.3927 2.80909L13.3828 3.02242C13.2091 3.03192 13.0266 3.08733 12.8778 3.04023C12.5892 2.9496 12.3063 3.00066 12.0206 2.99669C11.9762 2.99669 11.9319 3.01926 11.8867 3.02044C11.7721 3.02601 11.6571 3.01978 11.5436 3.00184C11.5392 3.0058 11.5314 3.00936 11.5306 3.01371C11.5048 3.17638 11.5048 3.17638 11.3386 3.17638C10.9971 3.17638 10.6555 3.17638 10.3139 3.17638C10.1926 3.17316 10.0792 3.23646 10.0183 3.34142C9.94844 3.43863 9.86437 3.52481 9.76894 3.59709C9.70919 3.64578 9.67594 3.69326 9.68981 3.76807C9.72306 3.94656 9.75787 4.12427 9.79194 4.30316C9.79981 4.34274 9.80812 4.38548 9.81725 4.43218C9.79425 4.44459 9.76981 4.45403 9.74444 4.46028C9.60156 4.47533 9.541 4.55844 9.52475 4.69775C9.50887 4.82008 9.48531 4.94129 9.45431 5.06068C9.42487 5.18227 9.34956 5.28778 9.24412 5.35514C9.17556 5.40441 9.11012 5.45794 9.04825 5.51543C8.9485 5.60289 8.64219 5.67374 8.51356 5.63416C8.24044 5.58904 7.99469 5.47071 7.75325 5.34129C7.61037 5.2649 7.46831 5.18654 7.31787 5.10382L7.23519 5.44578C7.51462 5.57123 7.58269 5.67849 7.56687 6.00619C7.551 6.3339 7.53875 6.65646 7.49444 6.97746C7.47306 7.13221 7.38675 7.27984 7.31669 7.42465C7.30006 7.45909 7.23319 7.48009 7.1865 7.4864C7.14112 7.48684 7.09619 7.47753 7.05469 7.45909C6.93006 7.41953 6.84056 7.4959 6.86275 7.62928C6.875 7.7029 6.89281 7.77571 6.9055 7.84934C6.92206 7.94865 6.96862 8.04046 7.03887 8.11253C7.50512 8.61203 7.78412 9.22071 8.02831 9.84603C8.06356 9.93709 8.09956 10.0273 8.13044 10.1199C8.16131 10.2125 8.19056 10.298 8.29231 10.3372C8.31012 10.3439 8.32119 10.3827 8.32519 10.4085C8.34019 10.5066 8.33544 10.6083 8.40906 10.6922C8.42844 10.714 8.42369 10.7599 8.42487 10.7947C8.43837 11.2843 8.3675 11.7668 8.30619 12.2504C8.28756 12.3948 8.31762 12.5465 8.33425 12.6937C8.35325 12.8591 8.34219 13.0162 8.25787 13.1647C8.23444 13.2034 8.22087 13.2473 8.21831 13.2925C8.21831 13.5264 8.2155 13.7606 8.23375 13.9934C8.24006 14.0725 8.29387 14.1573 8.34494 14.2253C8.43275 14.3465 8.53087 14.4598 8.63819 14.5641C8.72075 14.6349 8.81231 14.6944 8.9105 14.741C9.00594 14.7895 9.10456 14.8315 9.20575 14.8665C9.3265 14.9104 9.36406 14.9991 9.35812 15.117C9.35537 15.1653 9.34906 15.2136 9.34312 15.2733C9.24337 15.2825 9.14719 15.2979 9.051 15.2987C8.65525 15.3015 8.25944 15.3307 7.87319 15.1985C7.73387 15.151 7.56606 15.193 7.41212 15.1807C7.31069 15.1709 7.21087 15.1487 7.11487 15.1147C7.09031 15.1063 7.065 15.0383 7.07294 15.005C7.13344 14.7434 7.21181 14.4853 7.26331 14.2222C7.289 14.0908 7.27437 13.9507 7.27081 13.8145C7.26687 13.6688 7.255 13.5232 7.24506 13.3792C7.24506 13.361 7.23994 13.3337 7.22769 13.3269C7.13819 13.2763 7.13937 13.192 7.13819 13.1073C7.13756 13.0878 7.13381 13.0685 7.12712 13.0503C6.99294 12.6668 7.00837 12.2623 6.96169 11.8665C6.95262 11.7873 6.99056 11.6935 7.03412 11.6235C7.07631 11.5635 7.10062 11.4928 7.10419 11.4197C7.10419 11.3405 7.12794 11.2582 7.12712 11.1775C7.1265 11.1143 7.11306 11.052 7.08756 10.9942C7.04281 10.896 6.9815 10.8402 6.85006 10.8703C6.70169 10.9043 6.57306 10.839 6.48362 10.7049C6.26712 10.3803 6.04824 10.059 5.83017 9.73403C5.79416 9.67984 5.75497 9.64778 5.68848 9.6549C5.5365 9.67346 5.44389 9.59746 5.38254 9.46728C5.34969 9.3984 5.31368 9.33353 5.27766 9.26346ZM8.64375 4.2054C8.71231 4.13661 8.77731 4.06436 8.8385 3.98891C8.92437 3.87018 9.02012 3.7558 9.072 3.62361C9.09969 3.55276 9.06487 3.43522 9.017 3.36794C8.99637 3.33865 8.86619 3.3711 8.79531 3.3992C8.7245 3.4273 8.70869 3.493 8.76806 3.56424C8.67619 3.6153 8.5935 3.65883 8.51356 3.70673C8.46212 3.73759 8.413 3.77401 8.45144 3.84643C8.51194 3.95963 8.57175 4.07361 8.64375 4.2054Z" fill="white"/>
</g>
<defs>
<clipPath id="clip0_623_2506">
<rect width="15" height="15" fill="white" transform="translate(0 0.590088)"/>
</clipPath>
</defs>
</svg>
