<svg width="15" height="16" viewBox="0 0 15 16" fill="none" xmlns="http://www.w3.org/2000/svg">
<g id="04bc3e1fe360fd2371cfc3d84b97e1cf5d83e4ca.svg" clip-path="url(#clip0_623_2618)">
<path id="Vector" d="M0.411702 0.590088C5.25137 0.590088 9.75819 0.600736 14.5997 0.600736C14.8126 0.600736 14.9549 0.814162 14.9549 1.02574C14.9549 5.85074 14.9412 10.2063 14.9407 15.0313C14.9407 15.3836 14.6539 15.5216 14.4155 15.5216C9.58631 15.5216 5.23404 15.5286 0.404408 15.5286C0.130851 15.5322 0 15.3114 0 15.1035C0 10.2572 0.0104863 5.83546 0.0104863 0.989625C0.0159049 0.768225 0.193603 0.591271 0.411702 0.590088ZM1.56246 3.61601C1.90623 3.98638 2.24316 4.34611 2.58009 4.70722L7.464 9.93315C8.45212 10.9905 9.44106 12.047 10.4307 13.1026C10.4877 13.1663 10.5647 13.2079 10.6486 13.2201C11.1698 13.2382 11.6918 13.2392 12.2129 13.253C12.3269 13.2563 12.3743 13.2155 12.4081 13.1072C12.6816 12.2223 12.9599 11.3388 13.2429 10.4568C13.2839 10.329 13.2584 10.2618 13.1494 10.1868C11.8546 9.2949 10.5619 8.39984 9.27125 7.50165C7.22444 6.08191 5.17736 4.66339 3.12994 3.24611C3.06793 3.20351 2.99635 3.15351 2.92614 3.14888C2.43876 3.11092 2.03207 3.35722 1.61033 3.54888C1.59392 3.55722 1.58571 3.58361 1.56246 3.61601ZM5.82173 12.7577L2.8076 9.7799C2.46292 10.5767 2.12918 11.3428 1.80137 12.1114C1.74711 12.2392 1.82325 12.4545 1.93541 12.5451C2.26672 12.8125 2.59878 13.079 2.93161 13.3447C2.97127 13.3762 3.01961 13.4197 3.06292 13.4188C3.3652 13.4109 3.67705 13.4364 3.96611 13.367C4.40608 13.2618 4.83237 13.0892 5.2614 12.9443L5.82173 12.7577ZM8.89287 3.88638L11.8199 6.1549C11.9448 5.40166 12.0647 4.69101 12.1756 3.97898C12.1833 3.9299 12.1363 3.8512 12.0921 3.81833C11.8094 3.60814 11.5176 3.40999 11.2341 3.20074C11.156 3.13871 11.0503 3.12637 10.9605 3.16879C10.474 3.34194 9.98481 3.50676 9.49694 3.67528C9.31 3.73916 9.12175 3.80629 8.89287 3.88638Z" fill="white"/>
</g>
<defs>
<clipPath id="clip0_623_2618">
<rect width="15" height="15" fill="white" transform="translate(0 0.590088)"/>
</clipPath>
</defs>
</svg>
