<svg width="15" height="15" viewBox="0 0 15 15" fill="none" xmlns="http://www.w3.org/2000/svg">
<g id="icons_football.2e8099396.svg">
<path id="Vector" d="M7.58995 1.28573C6.74402 1.27437 5.90428 1.43132 5.11956 1.74746C4.33485 2.06361 3.62083 2.53263 3.01903 3.12724C2.41724 3.72186 1.93969 4.4302 1.61415 5.21106C1.28862 5.99193 1.1216 6.82973 1.12281 7.67573C1.12848 9.39215 1.81401 11.0364 3.02931 12.2485C4.24461 13.4606 5.89067 14.1418 7.60709 14.1429C9.31206 14.1429 10.9472 13.4656 12.1528 12.26C13.3584 11.0544 14.0357 9.41927 14.0357 7.7143C14.0357 6.00934 13.3584 4.37421 12.1528 3.16862C10.9472 1.96303 9.31206 1.28573 7.60709 1.28573H7.58995ZM9.30424 9.59145V9.62145V9.64287C9.73281 10.11 10.8042 11.3572 10.8385 11.3786V11.4214L12.6428 10.8729C11.9277 12.029 10.839 12.9061 9.55709 13.3586C10.4142 11.6914 10.4142 11.6914 10.3671 11.6443L8.87138 9.93002H6.35567L4.97567 11.6229L5.66567 13.38C4.38738 12.9396 3.29643 12.0783 2.57138 10.9372L4.54281 11.22H4.57281L5.96138 9.68573V9.6643L5.27138 7.1743V7.1443H5.24567C4.46567 6.89573 3.10281 6.43716 3.10281 6.43288H3.07709H3.05567C2.59281 6.76288 1.98852 7.14002 1.67567 7.33288C1.75324 6.21797 2.14558 5.14796 2.8071 4.24716C3.23567 5.98716 3.23567 6.00002 3.27852 6.00859C3.44995 6.07288 4.81281 6.54002 5.33567 6.71573H5.36567L7.37995 5.07859V5.05288C7.37995 5.05288 7.37995 3.53573 7.37995 3.30002V3.27859L5.69138 2.14287C6.95187 1.69814 8.3266 1.69814 9.5871 2.14287L7.87281 3.2443V5.06573V5.09145L9.90852 6.71145L12.0514 5.96573L12.4285 4.28573C13.1331 5.25846 13.5235 6.42341 13.5471 7.6243L12.2614 6.39859L12.2357 6.37716L10.0285 7.1443L9.30424 9.59145Z" fill="white"/>
</g>
</svg>
