<svg width="15" height="16" viewBox="0 0 15 16" fill="none" xmlns="http://www.w3.org/2000/svg">
<g id="icons_hockey.0d49138de.svg">
<path id="Vector" d="M13.5514 11.7886C14.0785 11.0858 14.1514 10.0272 13.7571 8.78865C13.2216 7.27942 12.341 5.91609 11.1857 4.80722C10.0562 3.65671 8.65418 2.81048 7.10994 2.34722C5.79851 1.97865 4.51708 2.04722 3.98565 2.63007C3.92087 2.69125 3.8607 2.75715 3.80565 2.82722C3.44994 3.21722 2.76851 3.9715 2.63565 4.11293C2.63141 4.12544 2.63141 4.139 2.63565 4.1515C2.63293 4.5723 2.6775 4.99208 2.76851 5.40293C2.85422 5.8315 2.48994 5.98579 2.36137 5.57865C2.28139 5.23728 2.24112 4.88782 2.24137 4.53722C2.02226 4.78593 1.8443 5.06806 1.71422 5.37293C1.62422 5.61293 0.814222 8.31722 4.17851 11.8958L4.22136 11.9386L4.26422 11.9815C7.88994 15.3201 10.5428 14.5529 10.7871 14.4458C11.0616 14.3026 11.3142 14.1207 11.5371 13.9058C11.2799 13.9058 11.0399 13.9058 10.6799 13.8415C10.0417 13.7765 9.42118 13.5934 8.84994 13.3015C8.81735 13.2857 8.78707 13.2655 8.75994 13.2415C8.70964 13.2049 8.67303 13.1526 8.65594 13.0927C8.63885 13.0329 8.64227 12.9691 8.66565 12.9115C8.68403 12.8786 8.7091 12.8499 8.73925 12.8272C8.7694 12.8046 8.80395 12.7885 8.84069 12.78C8.87743 12.7715 8.91554 12.7709 8.95256 12.778C8.98959 12.7851 9.0247 12.8 9.05565 12.8215C9.57746 13.0822 10.1372 13.2587 10.7142 13.3444C11.1588 13.4437 11.6177 13.4611 12.0685 13.3958C12.598 12.8944 13.0988 12.3636 13.5685 11.8058C13.5685 11.8058 13.5599 11.7886 13.5514 11.7886ZM5.60136 2.61293C6.98565 2.61293 9.07279 3.39293 10.8342 5.15436C11.9342 6.20488 12.7737 7.49779 13.2857 8.93007C13.6671 10.1301 13.5685 11.0986 13.0157 11.6558C12.9027 11.7675 12.7725 11.8601 12.6299 11.9301C11.2499 12.6458 8.62279 11.5915 6.50994 9.48293C5.62099 8.60689 4.89536 7.57939 4.36708 6.44865C3.94351 5.6499 3.77593 4.74018 3.88708 3.84293C3.93619 3.51924 4.08616 3.21929 4.31565 2.98579C4.68309 2.70624 5.14137 2.57334 5.60136 2.61293Z" fill="white"/>
</g>
</svg>
