<svg width="24" height="24" viewBox="0 0 24 24" fill="none" xmlns="http://www.w3.org/2000/svg">
<g id="vuesax/bold/game">
<g id="game">
<path id="Vector" d="M17.0599 5.71997H7.75991C4.80991 5.71997 2.40991 8.11997 2.40991 11.07V16.65C2.40991 19.6 4.80991 22 7.75991 22H17.0599C20.0099 22 22.4099 19.6 22.4099 16.65V11.07C22.4099 8.11997 20.0099 5.71997 17.0599 5.71997ZM14.9099 12.02C14.9099 11.47 15.3599 11.02 15.9099 11.02C16.4599 11.02 16.9099 11.47 16.9099 12.02C16.9099 12.57 16.4599 13.03 15.9099 13.03C15.3599 13.03 14.9099 12.59 14.9099 12.04V12.02ZM10.5399 16.07C10.3899 16.22 10.1999 16.29 10.0099 16.29C9.81991 16.29 9.62991 16.22 9.47991 16.07L8.44991 15.04L7.45991 16.03C7.30991 16.18 7.11991 16.25 6.92991 16.25C6.73991 16.25 6.54991 16.18 6.39991 16.03C6.10991 15.74 6.10991 15.26 6.39991 14.97L7.38991 13.98L6.42991 13.02C6.13991 12.73 6.13991 12.25 6.42991 11.96C6.71991 11.67 7.19991 11.67 7.48991 11.96L8.44991 12.92L9.43991 11.93C9.72991 11.64 10.2099 11.64 10.4999 11.93C10.7899 12.22 10.7899 12.7 10.4999 12.99L9.50991 13.98L10.5399 15.01C10.8299 15.3 10.8299 15.78 10.5399 16.07ZM13.9499 15C13.3999 15 12.9399 14.55 12.9399 14C12.9399 13.45 13.3799 13 13.9299 13H13.9499C14.4999 13 14.9499 13.45 14.9499 14C14.9499 14.55 14.5099 15 13.9499 15ZM15.9099 16.97C15.3599 16.97 14.9099 16.53 14.9099 15.98V15.96C14.9099 15.41 15.3599 14.96 15.9099 14.96C16.4599 14.96 16.9099 15.41 16.9099 15.96C16.9099 16.51 16.4699 16.97 15.9099 16.97ZM17.8899 15C17.3399 15 16.8799 14.55 16.8799 14C16.8799 13.45 17.3199 13 17.8699 13H17.8899C18.4399 13 18.8899 13.45 18.8899 14C18.8899 14.55 18.4499 15 17.8899 15Z" fill="url(#paint0_linear_771_255)"/>
<path id="Vector_2" d="M14.0499 2.71L14.0399 3.65C14.0299 4.53 13.2999 5.26 12.4099 5.26C12.2599 5.26 12.1699 5.36 12.1699 5.49C12.1699 5.62 12.2699 5.72 12.3999 5.72H10.7899C10.7799 5.65 10.7699 5.57 10.7699 5.49C10.7699 4.59 11.4999 3.86 12.3899 3.86C12.5399 3.86 12.6399 3.76 12.6399 3.63L12.6499 2.69C12.6599 2.31 12.9699 2 13.3499 2H13.3599C13.7499 2 14.0499 2.32 14.0499 2.71Z" fill="url(#paint1_linear_771_255)"/>
</g>
</g>
<defs>
<linearGradient id="paint0_linear_771_255" x1="2.40991" y1="13.86" x2="22.4099" y2="13.86" gradientUnits="userSpaceOnUse">
<stop stop-color="#FFE259"/>
<stop offset="1" stop-color="#FFA751"/>
</linearGradient>
<linearGradient id="paint1_linear_771_255" x1="10.7699" y1="3.86" x2="14.0499" y2="3.86" gradientUnits="userSpaceOnUse">
<stop stop-color="#FFE259"/>
<stop offset="1" stop-color="#FFA751"/>
</linearGradient>
</defs>
</svg>
