<svg width="24" height="24" viewBox="0 0 24 24" fill="none" xmlns="http://www.w3.org/2000/svg">
<g id="material-symbols:playing-cards">
<path id="Vector" d="M15.1999 14.8L16.3499 10.65L12.7999 8.2L11.6499 12.35L15.1999 14.8ZM3.99991 18.825L3.17491 18.425C2.65824 18.2083 2.30824 17.8377 2.12491 17.313C1.94157 16.7883 1.96657 16.2673 2.19991 15.75L3.99991 11.85V18.825ZM7.99991 21C7.44991 21 6.97924 20.8 6.58791 20.4C6.19657 20 6.00057 19.525 5.99991 18.975V13L8.67491 20.35C8.72491 20.4667 8.76657 20.5793 8.79991 20.688C8.83324 20.7967 8.89157 20.9007 8.97491 21H7.99991ZM13.1499 20.875C12.6332 21.0583 12.1166 21.0333 11.5999 20.8C11.0832 20.5667 10.7332 20.1917 10.5499 19.675L6.12491 7.45C5.94157 6.93333 5.96657 6.42066 6.19991 5.912C6.43324 5.40333 6.80824 5.05766 7.32491 4.875L14.8499 2.125C15.3666 1.94166 15.8792 1.96666 16.3879 2.2C16.8966 2.43333 17.2422 2.80833 17.4249 3.325L21.8749 15.55C22.0582 16.0667 22.0332 16.5793 21.7999 17.088C21.5666 17.5967 21.1916 17.9423 20.6749 18.125L13.1499 20.875Z" fill="url(#paint0_linear_250_1347)"/>
</g>
<defs>
<linearGradient id="paint0_linear_250_1347" x1="2.00391" y1="11.502" x2="21.9959" y2="11.502" gradientUnits="userSpaceOnUse">
<stop stop-color="#9400D3"/>
<stop offset="1" stop-color="#4B0082"/>
</linearGradient>
</defs>
</svg>
