<svg width="24" height="24" viewBox="0 0 24 24" fill="none" xmlns="http://www.w3.org/2000/svg">
<g id="mingcute:rocket-fill" clip-path="url(#clip0_250_1338)">
<g id="Group">
<path id="Vector" fill-rule="evenodd" clip-rule="evenodd" d="M18.165 2.76497L18.42 2.79697C19.094 2.88997 19.986 3.01497 20.491 3.52097C20.905 3.93397 21.064 4.60597 21.159 5.20597L21.215 5.59197C21.341 6.50197 21.374 7.69397 21.159 9.01797C20.735 11.631 19.344 14.749 15.851 17.163C15.832 17.351 15.831 17.541 15.835 17.731L15.845 18.015C15.861 18.452 15.877 18.889 15.755 19.313C15.565 19.973 14.888 20.408 14.255 20.72L13.945 20.867L13.545 21.043C12.797 21.361 11.787 21.687 11.154 21.053C10.774 20.674 10.618 20.118 10.491 19.565L10.444 19.358C10.3911 19.0966 10.3243 18.8383 10.244 18.584C10.194 18.438 10.14 18.289 10.082 18.139C10.0182 18.2173 9.95046 18.2924 9.87905 18.364C9.53405 18.709 9.01905 18.95 8.59505 19.119C8.13205 19.302 7.60805 19.462 7.12305 19.594L6.87405 19.66L6.39705 19.779L5.96505 19.879L5.44805 19.989L5.12505 20.052C4.96396 20.0818 4.79803 20.072 4.64157 20.0234C4.48512 19.9748 4.34283 19.8889 4.22699 19.773C4.11115 19.6572 4.02522 19.5149 3.97663 19.3584C3.92803 19.202 3.91822 19.0361 3.94805 18.875L4.03405 18.444L4.18805 17.746L4.31205 17.236L4.40605 16.876C4.53805 16.392 4.69805 15.868 4.88205 15.406C5.05005 14.981 5.29105 14.466 5.63605 14.121L5.71605 14.044L5.65205 14.018C5.48115 13.953 5.30804 13.894 5.13305 13.841L4.85605 13.756C4.16205 13.546 3.42005 13.32 2.95905 12.858C2.39905 12.299 2.58805 11.448 2.85805 10.74L2.96805 10.466L3.14505 10.066L3.29205 9.75597C3.60405 9.12397 4.03905 8.44697 4.69905 8.25697C5.04905 8.15697 5.41305 8.15097 5.77905 8.16097L5.99905 8.16797C6.28505 8.17797 6.57005 8.18897 6.84905 8.16197C9.26305 4.66797 12.381 3.27697 14.994 2.85297C16.0423 2.68105 17.1089 2.65145 18.165 2.76497ZM8.35305 15.44C8.19566 15.3235 8.00756 15.2557 7.81204 15.245C7.61653 15.2344 7.42217 15.2813 7.25305 15.38L7.14305 15.454L7.05005 15.537L6.92505 15.695C6.66505 16.071 6.51705 16.591 6.40205 17.077L6.29405 17.545L6.24305 17.758L6.43405 17.712L6.85205 17.616C7.43005 17.481 8.07105 17.306 8.46505 16.951C8.63636 16.7798 8.7397 16.5522 8.75589 16.3105C8.77207 16.0688 8.7 15.8295 8.55305 15.637L8.47105 15.543L8.44705 15.52L8.35305 15.44ZM15.536 8.46597C15.3504 8.28022 15.1299 8.13286 14.8873 8.0323C14.6446 7.93175 14.3846 7.87997 14.1219 7.87992C13.8593 7.87988 13.5992 7.93156 13.3565 8.03203C13.1138 8.1325 12.8933 8.27978 12.7075 8.46547C12.5218 8.65116 12.3744 8.87162 12.2739 9.11426C12.1733 9.3569 12.1215 9.61697 12.1215 9.87962C12.1214 10.1423 12.1731 10.4024 12.2736 10.645C12.3741 10.8877 12.5214 11.1082 12.707 11.294C13.0821 11.6691 13.5907 11.8799 14.1212 11.88C14.6516 11.8801 15.1604 11.6695 15.5355 11.2945C15.9107 10.9195 16.1215 10.4108 16.1216 9.88033C16.1217 9.34988 15.9111 8.84112 15.536 8.46597Z" fill="url(#paint0_linear_250_1338)"/>
</g>
</g>
<defs>
<linearGradient id="paint0_linear_250_1338" x1="2.59644" y1="12.0564" x2="21.3151" y2="12.0564" gradientUnits="userSpaceOnUse">
<stop stop-color="#5433FF"/>
<stop offset="0.5" stop-color="#20BDFF"/>
<stop offset="1" stop-color="#A5FECB"/>
</linearGradient>
<clipPath id="clip0_250_1338">
<rect width="24" height="24" fill="white"/>
</clipPath>
</defs>
</svg>
