<svg width="15" height="16" viewBox="0 0 15 16" fill="none" xmlns="http://www.w3.org/2000/svg">
<g id="icons_tennis.4b25aa6e8.svg">
<path id="Vector" d="M12.9172 3.37997C11.46 1.83711 8.86719 1.92282 7.1229 3.57282C6.55414 4.08263 6.12755 4.73141 5.88489 5.45564C5.64223 6.17986 5.59182 6.95469 5.73862 7.70425C5.82004 8.13282 6.08147 9.15711 4.76576 10.5328H4.74433C4.31576 10.8971 4.02862 10.7985 3.88719 10.9271L1.96719 12.8257L1.38433 13.4C1.36287 13.4216 1.35083 13.4509 1.35083 13.4814C1.35083 13.5119 1.36287 13.5412 1.38433 13.5628L1.8129 13.9914L2.24147 14.42C2.26314 14.4414 2.2924 14.4535 2.3229 14.4535C2.3534 14.4535 2.38266 14.4414 2.40433 14.42L3.03862 13.8071L4.93719 11.9771C5.07004 11.8443 5.01433 11.5914 5.36576 11.12C5.36734 11.1086 5.36734 11.0971 5.36576 11.0857C6.73719 9.87282 7.59004 10.1428 8.1429 10.2543C8.88561 10.4544 9.66749 10.459 10.4125 10.2675C11.1575 10.076 11.8402 9.69493 12.3943 9.16139C14.1429 7.50711 14.37 4.92282 12.9172 3.37997ZM12.75 7.16425L12.0558 6.43139L13.0458 5.49711C13.087 6.06875 12.9854 6.64167 12.75 7.16425ZM7.31147 8.96425L7.82576 8.47568L7.98004 8.64282C8.01929 8.6777 8.07018 8.69661 8.12268 8.69582C8.17518 8.69503 8.22548 8.67461 8.26366 8.63858C8.30185 8.60254 8.32515 8.55351 8.32898 8.50114C8.3328 8.44878 8.31687 8.39688 8.28433 8.35568L8.1429 8.18854L8.78576 7.57568L9.46719 8.30425L8.21147 9.49139C7.87861 9.38107 7.57219 9.20305 7.31147 8.96854V8.96425ZM6.53576 7.64425L6.80147 7.39139L7.53862 8.17139L7.02004 8.65997C6.78617 8.36256 6.62081 8.0172 6.53576 7.64854V7.64425ZM7.58576 4.34854L8.4429 5.25711L7.77004 5.89139L7.13576 5.21854C7.11484 5.19674 7.08946 5.17971 7.06135 5.16861C7.03324 5.15752 7.00307 5.15262 6.9729 5.15425C7.14413 4.86207 7.34989 4.59155 7.58576 4.34854ZM8.71719 3.49139L9.4629 4.27996L8.75147 4.94854L7.89433 4.03997C8.14717 3.83283 8.42332 3.65592 8.71719 3.51282V3.49139ZM12.2058 3.73997L11.7343 4.16854L11.3829 3.79568C11.3437 3.7608 11.2928 3.7419 11.2403 3.74268C11.1878 3.74347 11.1375 3.76389 11.0993 3.79993C11.0611 3.83596 11.0378 3.88499 11.034 3.93736C11.0301 3.98972 11.0461 4.04162 11.0786 4.08282L11.43 4.45568L10.7958 5.05139L10.0586 4.31854L11.22 3.22139C11.5844 3.32651 11.921 3.51091 12.2058 3.76139V3.73997ZM10.4915 5.36425L9.78004 6.03282L9.0429 5.27854L9.75433 4.60997L10.4915 5.36425ZM8.73862 5.54425L9.47576 6.32425L8.8029 6.95854L8.06576 6.17854L8.73862 5.54425ZM8.49862 7.25854L7.8429 7.87568L7.11004 7.10425L7.76147 6.49139L8.49862 7.25854ZM9.09433 7.25854L9.76719 6.62425L10.4486 7.34854L9.77147 8.00854L9.09433 7.25854ZM10.0715 6.33282L10.7829 5.66425L11.4643 6.38854L10.7529 7.05711L10.0715 6.33282ZM11.0872 5.37282L11.7215 4.77711L12.4029 5.50139L11.7686 6.09711L11.0872 5.37282ZM12.9643 4.96997L12.7072 5.20996L12 4.51568L12.4715 4.08711C12.6947 4.35338 12.861 4.66261 12.96 4.99568L12.9643 4.96997ZM10.7143 3.11854L9.76719 4.01854L9.12862 3.33282C9.63345 3.1395 10.1763 3.06614 10.7143 3.11854ZM6.81004 5.47568L6.83576 5.50568L7.47433 6.18282L6.46719 7.13425C6.44304 6.56205 6.55928 5.99264 6.80576 5.47568H6.81004ZM8.70433 9.58996L9.75433 8.59568L10.47 9.35425C9.91189 9.58468 9.30338 9.66592 8.70433 9.58996ZM11.79 8.50996C11.5158 8.76643 11.2089 8.98547 10.8772 9.16139L10.0629 8.30425L10.7143 7.67854L11.1815 8.17139C11.2207 8.20627 11.2716 8.22518 11.3241 8.22439C11.3766 8.22361 11.4269 8.20318 11.4651 8.16715C11.5033 8.13111 11.5266 8.08208 11.5304 8.02972C11.5342 7.97735 11.5183 7.92545 11.4858 7.88425L11.0186 7.39139L11.73 6.72282L12.5272 7.57997C12.3269 7.92596 12.0787 8.24193 11.79 8.51854V8.50996Z" fill="white"/>
<path id="Vector_2" d="M3.1304 5.3618C3.79314 5.34192 4.31428 4.78854 4.2944 4.1258C4.27452 3.46306 3.72114 2.94192 3.0584 2.9618C2.39566 2.98168 1.87452 3.53506 1.8944 4.1978C1.91428 4.86054 2.46766 5.38168 3.1304 5.3618Z" fill="white"/>
</g>
</svg>
