<svg width="20" height="20" viewBox="0 0 20 20" fill="none" xmlns="http://www.w3.org/2000/svg">
<g id="mdi:casino-chip">
<path id="Vector" d="M18 10C18 14.4218 14.4218 18 10 18C5.57818 18 2 14.4218 2 10C2 5.57818 5.57818 2 10 2C14.4218 2 18 5.57818 18 10ZM10.7273 4.22545C12.2764 4.42182 13.6873 5.23636 14.6327 6.48L15.8982 5.75273C15.3006 4.91012 14.5303 4.2045 13.6387 3.68283C12.7471 3.16115 11.7546 2.83541 10.7273 2.72727V4.22545ZM4.10182 5.75273L5.36727 6.48C5.83609 5.86387 6.42286 5.34721 7.09337 4.96014C7.76388 4.57307 8.50472 4.32332 9.27273 4.22545V2.72727C8.24539 2.83541 7.25288 3.16115 6.36127 3.68283C5.46967 4.2045 4.69942 4.91012 4.10182 5.75273ZM3.37455 12.9818L4.63273 12.2545C4.33389 11.5405 4.17999 10.7741 4.17999 10C4.17999 9.22591 4.33389 8.45954 4.63273 7.74545L3.37455 7.01818C2.94684 7.95407 2.72548 8.97101 2.72548 10C2.72548 11.029 2.94684 12.0459 3.37455 12.9818ZM9.27273 15.7745C8.50472 15.6767 7.76388 15.4269 7.09337 15.0399C6.42286 14.6528 5.83609 14.1361 5.36727 13.52L4.10182 14.2473C4.69942 15.0899 5.46967 15.7955 6.36127 16.3172C7.25288 16.8388 8.24539 17.1646 9.27273 17.2727V15.7745ZM15.8982 14.2473L14.6327 13.52C14.1639 14.1361 13.5771 14.6528 12.9066 15.0399C12.2361 15.4269 11.4953 15.6767 10.7273 15.7745V17.2291C12.8 17.0182 14.6836 15.9345 15.8982 14.2473ZM16.6255 12.9818C17.4909 11.0909 17.4909 8.90909 16.6255 7.01818L15.3673 7.74545C15.6661 8.45954 15.82 9.22591 15.82 10C15.82 10.7741 15.6661 11.5405 15.3673 12.2545L16.6255 12.9818ZM12.1818 10L10 6.36364L7.81818 10L10 13.6364L12.1818 10Z" fill="url(#paint0_linear_250_2098)"/>
</g>
<defs>
<linearGradient id="paint0_linear_250_2098" x1="2" y1="10" x2="18" y2="10" gradientUnits="userSpaceOnUse">
<stop stop-color="#FFE259"/>
<stop offset="1" stop-color="#FFA751"/>
</linearGradient>
</defs>
</svg>
