<svg width="20" height="20" viewBox="0 0 20 20" fill="none" xmlns="http://www.w3.org/2000/svg">
<g id="ri:live-fill">
<path id="Vector" d="M13.3333 3.33337C13.5543 3.33337 13.7662 3.42117 13.9225 3.57745C14.0788 3.73373 14.1666 3.94569 14.1666 4.16671V7.66671L18.5108 4.62504C18.5732 4.58125 18.6465 4.55546 18.7226 4.55046C18.7987 4.54546 18.8748 4.56146 18.9424 4.5967C19.0101 4.63195 19.0668 4.68509 19.1063 4.75033C19.1458 4.81558 19.1667 4.89042 19.1666 4.96671V15.0334C19.1667 15.1097 19.1458 15.1845 19.1063 15.2497C19.0668 15.315 19.0101 15.3681 18.9424 15.4034C18.8748 15.4386 18.7987 15.4546 18.7226 15.4496C18.6465 15.4446 18.5732 15.4188 18.5108 15.375L14.1666 12.3334V15.8334C14.1666 16.0544 14.0788 16.2663 13.9225 16.4226C13.7662 16.5789 13.5543 16.6667 13.3333 16.6667H1.66659C1.44557 16.6667 1.23361 16.5789 1.07733 16.4226C0.921049 16.2663 0.833252 16.0544 0.833252 15.8334V4.16671C0.833252 3.94569 0.921049 3.73373 1.07733 3.57745C1.23361 3.42117 1.44557 3.33337 1.66659 3.33337H13.3333ZM6.16659 7.35754C6.08974 7.35753 6.01525 7.38406 5.95573 7.43265C5.8962 7.48125 5.85529 7.54892 5.83992 7.62421L5.83325 7.69004V12.3084C5.83324 12.3624 5.84635 12.4155 5.87143 12.4633C5.89652 12.5111 5.93284 12.5521 5.97727 12.5828C6.0217 12.6134 6.07291 12.6328 6.1265 12.6393C6.18009 12.6458 6.23445 12.6392 6.28492 12.62L6.34575 12.59L9.97492 10.2809C10.0173 10.2537 10.053 10.2173 10.0793 10.1744C10.1056 10.1315 10.1219 10.0832 10.1269 10.0331C10.132 9.98306 10.1257 9.93249 10.1084 9.8852C10.0912 9.83791 10.0635 9.79513 10.0274 9.76004L9.97492 9.71837L6.34575 7.40837C6.29198 7.37504 6.22984 7.35687 6.16659 7.35754Z" fill="url(#paint0_linear_250_2102)"/>
</g>
<defs>
<linearGradient id="paint0_linear_250_2102" x1="0.833252" y1="10" x2="19.1666" y2="10" gradientUnits="userSpaceOnUse">
<stop stop-color="#4776E6"/>
<stop offset="1" stop-color="#8E54E9"/>
</linearGradient>
</defs>
</svg>
