<svg width="25" height="24" viewBox="0 0 25 24" fill="none" xmlns="http://www.w3.org/2000/svg">
<g id="vuesax/bold/game">
<g id="game">
<path id="Vector" d="M17.44 5.71997H8.14004C5.19004 5.71997 2.79004 8.11997 2.79004 11.07V16.65C2.79004 19.6 5.19004 22 8.14004 22H17.44C20.39 22 22.79 19.6 22.79 16.65V11.07C22.79 8.11997 20.39 5.71997 17.44 5.71997ZM15.29 12.02C15.29 11.47 15.74 11.02 16.29 11.02C16.84 11.02 17.29 11.47 17.29 12.02C17.29 12.57 16.84 13.03 16.29 13.03C15.74 13.03 15.29 12.59 15.29 12.04V12.02ZM10.92 16.07C10.77 16.22 10.58 16.29 10.39 16.29C10.2 16.29 10.01 16.22 9.86004 16.07L8.83004 15.04L7.84004 16.03C7.69004 16.18 7.50004 16.25 7.31004 16.25C7.12004 16.25 6.93004 16.18 6.78004 16.03C6.49004 15.74 6.49004 15.26 6.78004 14.97L7.77004 13.98L6.81004 13.02C6.52004 12.73 6.52004 12.25 6.81004 11.96C7.10004 11.67 7.58004 11.67 7.87004 11.96L8.83004 12.92L9.82004 11.93C10.11 11.64 10.59 11.64 10.88 11.93C11.17 12.22 11.17 12.7 10.88 12.99L9.89004 13.98L10.92 15.01C11.21 15.3 11.21 15.78 10.92 16.07ZM14.33 15C13.78 15 13.32 14.55 13.32 14C13.32 13.45 13.76 13 14.31 13H14.33C14.88 13 15.33 13.45 15.33 14C15.33 14.55 14.89 15 14.33 15ZM16.29 16.97C15.74 16.97 15.29 16.53 15.29 15.98V15.96C15.29 15.41 15.74 14.96 16.29 14.96C16.84 14.96 17.29 15.41 17.29 15.96C17.29 16.51 16.85 16.97 16.29 16.97ZM18.27 15C17.72 15 17.26 14.55 17.26 14C17.26 13.45 17.7 13 18.25 13H18.27C18.82 13 19.27 13.45 19.27 14C19.27 14.55 18.83 15 18.27 15Z" fill="url(#paint0_linear_883_2017)"/>
<path id="Vector_2" d="M14.4301 2.71L14.4201 3.65C14.4101 4.53 13.6801 5.26 12.7901 5.26C12.6401 5.26 12.5501 5.36 12.5501 5.49C12.5501 5.62 12.6501 5.72 12.7801 5.72H11.1701C11.1601 5.65 11.1501 5.57 11.1501 5.49C11.1501 4.59 11.8801 3.86 12.7701 3.86C12.9201 3.86 13.0201 3.76 13.0201 3.63L13.0301 2.69C13.0401 2.31 13.3501 2 13.7301 2H13.7401C14.1301 2 14.4301 2.32 14.4301 2.71Z" fill="url(#paint1_linear_883_2017)"/>
</g>
</g>
<defs>
<linearGradient id="paint0_linear_883_2017" x1="2.79004" y1="13.86" x2="22.79" y2="13.86" gradientUnits="userSpaceOnUse">
<stop stop-color="#00F5A0"/>
<stop offset="1" stop-color="#00D9F5"/>
</linearGradient>
<linearGradient id="paint1_linear_883_2017" x1="11.1501" y1="3.86" x2="14.4301" y2="3.86" gradientUnits="userSpaceOnUse">
<stop stop-color="#00F5A0"/>
<stop offset="1" stop-color="#00D9F5"/>
</linearGradient>
</defs>
</svg>
