<svg width="20" height="20" viewBox="0 0 20 20" fill="none" xmlns="http://www.w3.org/2000/svg">
<g id="streamline:ball-solid" clip-path="url(#clip0_250_2094)">
<path id="Vector" fill-rule="evenodd" clip-rule="evenodd" d="M1.9043 4.12861C0.663444 5.83454 -0.00338735 7.89056 1.29396e-05 10C-0.00318991 12.1095 0.663622 14.1654 1.9043 15.8715C2.84152 15.2406 3.59827 14.3765 4.10001 13.3643C4.62254 12.32 4.89311 11.1678 4.89001 10C4.89268 8.83234 4.62214 7.68022 4.10001 6.63575C3.59827 5.62353 2.84152 4.75945 1.9043 4.12861ZM3.0843 2.77575C4.19049 3.56523 5.08618 4.61396 5.69287 5.83004C6.34001 7.10861 6.67573 8.54432 6.67573 10C6.67891 11.4483 6.34227 12.877 5.69287 14.1715C5.08598 15.387 4.19031 16.4353 3.0843 17.2243C4.72188 18.7954 6.84661 19.7605 9.10715 19.96V0.0400391C6.77858 0.245753 4.67858 1.25004 3.0843 2.77575ZM10.8929 19.9615C13.1536 19.7615 15.2783 18.7959 16.9157 17.2243C15.8095 16.4349 14.9138 15.3861 14.3072 14.17C13.658 12.876 13.3213 11.4478 13.3243 10C13.3243 8.5429 13.66 7.10861 14.3072 5.82861C14.9136 4.61321 15.8088 3.565 16.9143 2.77575C15.2775 1.20529 13.1538 0.240234 10.8943 0.0400391V19.96L10.8929 19.9615ZM20 10C20.0034 12.1095 19.3366 14.1655 18.0957 15.8715C17.1585 15.2406 16.4018 14.3765 15.9 13.3643C15.3775 12.32 15.1069 11.1678 15.11 10C15.11 8.81718 15.3829 7.65718 15.9 6.63575C16.4018 5.62353 17.1585 4.75945 18.0957 4.12861C19.3366 5.83454 20.0034 7.89056 20 10Z" fill="url(#paint0_linear_250_2094)"/>
</g>
<defs>
<linearGradient id="paint0_linear_250_2094" x1="0" y1="10.0008" x2="20" y2="10.0008" gradientUnits="userSpaceOnUse">
<stop stop-color="#E52D27"/>
<stop offset="1" stop-color="#B31217"/>
</linearGradient>
<clipPath id="clip0_250_2094">
<rect width="20" height="20" fill="white"/>
</clipPath>
</defs>
</svg>
