<svg width="15" height="13" viewBox="0 0 15 13" fill="none" xmlns="http://www.w3.org/2000/svg">
<g id="USDT 1" clip-path="url(#clip0_250_2071)">
<path id="Vector" fill-rule="evenodd" clip-rule="evenodd" d="M2.73649 0.0638484L0.0116298 5.78742C0.00126088 5.80871 -0.00202495 5.83276 0.00225279 5.85605C0.00653052 5.87934 0.0181474 5.90065 0.0354046 5.91686L7.3946 12.9687C7.41551 12.9888 7.44335 13 7.47231 13C7.50127 13 7.52912 12.9888 7.55002 12.9687L14.9092 5.9173C14.9265 5.90109 14.9381 5.87978 14.9424 5.85649C14.9466 5.8332 14.9434 5.80915 14.933 5.78786L12.2081 0.0642887C12.1993 0.0450665 12.1852 0.0287828 12.1674 0.0173839C12.1496 0.00598495 12.1289 -4.71529e-05 12.1077 8.52036e-06H2.83776C2.81652 -0.000255716 2.79565 0.00563108 2.77769 0.0169588C2.75972 0.0282865 2.74541 0.0445712 2.73649 0.0638484Z" fill="#50AF95"/>
<path id="Vector_2" fill-rule="evenodd" clip-rule="evenodd" d="M8.41759 6.3752C8.36475 6.37916 8.09178 6.39545 7.48288 6.39545C6.99858 6.39545 6.65472 6.38092 6.53409 6.3752C4.66248 6.29286 3.26549 5.96706 3.26549 5.57698C3.26549 5.18689 4.66248 4.86153 6.53409 4.77788V6.05071C6.65649 6.05952 7.00694 6.08021 7.49125 6.08021C8.07241 6.08021 8.36343 6.056 8.41582 6.05115V4.77876C10.2835 4.86197 11.6774 5.18777 11.6774 5.57698C11.6774 5.96618 10.2839 6.29198 8.41582 6.37476L8.41759 6.3752ZM8.41759 4.64712V3.50813H11.024V1.77124H3.92766V3.50813H6.53365V4.64668C4.41549 4.74398 2.82257 5.16356 2.82257 5.66635C2.82257 6.16915 4.41549 6.58829 6.53365 6.68603V10.3359H8.41714V6.68471C10.5305 6.58741 12.1207 6.16827 12.1207 5.66591C12.1207 5.16356 10.5318 4.74442 8.41714 4.64668L8.41759 4.64712Z" fill="white"/>
</g>
<defs>
<clipPath id="clip0_250_2071">
<rect width="14.9443" height="13" fill="white"/>
</clipPath>
</defs>
</svg>
