<svg width="15" height="16" viewBox="0 0 15 16" fill="none" xmlns="http://www.w3.org/2000/svg">
<g id="icons_voleball_pesok.c3ba8fc52.svg">
<path id="Vector" d="M6.91725 13.4471C7.0201 13.5028 6.97725 13.58 6.91725 13.58H1.83868C1.80868 13.58 1.79582 13.5328 1.80868 13.5028C1.91582 13.2842 4.82582 12.3114 6.91725 13.4471Z" fill="white"/>
<path id="Vector_2" d="M11.1428 13.7728H10.8771C10.6799 13.7728 10.4913 13.7728 10.3156 13.7728C9.37498 13.6935 8.4532 13.4635 7.58563 13.0914C6.63961 12.6753 5.61907 12.4551 4.58563 12.4443C4.02661 12.4505 3.46959 12.5122 2.92277 12.6285C1.63705 12.8943 0.818483 13.3314 0.749912 13.1814C0.681341 13.0314 1.3542 12.3243 2.38705 11.8443L2.53277 11.7328L2.8542 11.6043C3.41769 11.4016 4.01253 11.3001 4.61134 11.3043C4.92115 11.305 5.23051 11.328 5.53706 11.3728H5.59277C5.75277 11.3957 5.91134 11.4243 6.06848 11.4585C6.96141 11.6811 7.84253 11.9486 8.70848 12.26C9.18985 12.423 9.68461 12.5435 10.1871 12.62C10.3746 12.6454 10.5635 12.6583 10.7528 12.6585C11.0399 12.6585 11.3056 12.6585 11.5542 12.6285H11.7556L12.1842 12.5814L12.4371 12.5428C13.7999 12.3071 14.4085 11.8614 14.5113 11.9643C14.6999 12.1614 13.2342 13.6485 11.1428 13.7728Z" fill="white"/>
<path id="Vector_3" d="M10.2857 9.11425C10.0078 10.1142 9.46252 11.0196 8.70854 11.7328C7.84258 11.4214 6.96146 11.1539 6.06854 10.9314C5.91139 10.8971 5.75282 10.8685 5.59282 10.8457H5.53711C5.67843 10.7922 5.81469 10.7263 5.94425 10.6485C6.74374 10.1973 7.34365 9.4612 7.62425 8.5871C7.63268 8.55736 7.64986 8.53083 7.67355 8.51096C7.69724 8.49109 7.72635 8.4788 7.75711 8.47568C8.59186 8.40752 9.43011 8.5551 10.1914 8.90425C10.2121 8.91081 10.2312 8.92168 10.2474 8.93613C10.2637 8.95059 10.2767 8.96831 10.2856 8.98814C10.2945 9.00796 10.2991 9.02945 10.2991 9.05118C10.2991 9.07291 10.2945 9.0944 10.2857 9.11425Z" fill="white"/>
<path id="Vector_4" d="M12.4285 12.0114L12.1757 12.05L11.7471 12.0971C12.0882 11.7176 12.3765 11.2938 12.6042 10.8371C12.2346 9.943 11.587 9.19163 10.7571 8.69427L10.7142 8.65141L10.6457 8.61284C9.78181 8.15518 8.80352 7.95863 7.82994 8.04712C7.79935 8.05056 7.76838 8.04694 7.7394 8.03654C7.71043 8.02614 7.68422 8.00923 7.6628 7.98712C7.09817 7.38539 6.76949 6.60022 6.73708 5.7757C6.73708 5.73284 6.73708 5.68998 6.73708 5.65998C6.73756 5.61324 6.75462 5.56818 6.78524 5.53286C6.81585 5.49753 6.85803 5.47423 6.90423 5.46712C8.19293 5.2915 9.50509 5.43876 10.7228 5.8957C11.6042 6.20815 12.3937 6.73549 13.0199 7.42998C13.0306 7.44085 13.0444 7.4481 13.0594 7.45071C13.0744 7.45332 13.0899 7.45116 13.1036 7.44454C13.1173 7.43792 13.1286 7.42717 13.1359 7.41379C13.1432 7.40042 13.1461 7.3851 13.1442 7.36998C12.9051 6.07643 12.2211 4.90727 11.2106 4.06506C10.2001 3.22285 8.92683 2.76065 7.61137 2.75855H7.26423C7.24642 2.75968 7.22964 2.76731 7.21708 2.77998C6.85609 3.19594 6.58334 3.68089 6.41537 4.20542C6.2474 4.72995 6.18772 5.28312 6.23994 5.83141C6.27476 6.71711 6.63131 7.55973 7.2428 8.20141C7.25711 8.21573 7.26742 8.23356 7.27268 8.25312C7.27794 8.27267 7.27799 8.29326 7.2728 8.31284C7.01741 9.12727 6.4631 9.8148 5.72137 10.2371L5.54566 10.3314C5.52297 10.342 5.49755 10.3451 5.47296 10.3405C5.44837 10.3359 5.42584 10.3237 5.40851 10.3057C4.41394 9.17637 3.84013 7.73807 3.78423 6.23427C3.75239 5.54654 3.84979 4.85895 4.07137 4.20712C4.07729 4.19194 4.07795 4.17522 4.07325 4.15962C4.06855 4.14401 4.05875 4.13044 4.04542 4.12106C4.0321 4.11169 4.01601 4.10705 3.99974 4.10789C3.98347 4.10873 3.96795 4.115 3.95566 4.1257C2.97735 4.96885 2.32236 6.12568 2.10269 7.39837C1.88301 8.67105 2.11231 9.98052 2.75137 11.1028C2.75269 11.1157 2.75269 11.1286 2.75137 11.1414C2.63994 11.18 2.61851 11.1928 2.51566 11.24L2.3528 11.3043C1.85433 10.4282 1.5846 9.44066 1.56851 8.43284C1.55748 7.47129 1.77607 6.521 2.20613 5.66092C2.6362 4.80083 3.26531 4.05581 4.04119 3.48774C4.81707 2.91968 5.71732 2.54498 6.66713 2.39478C7.61694 2.24459 8.58887 2.32323 9.50218 2.62418C10.4155 2.92513 11.2438 3.4397 11.9182 4.12512C12.5927 4.81054 13.0938 5.64702 13.38 6.56506C13.6662 7.48309 13.7292 8.45617 13.5637 9.40343C13.3982 10.3507 13.009 11.2448 12.4285 12.0114Z" fill="white"/>
</g>
</svg>
